<?xml version="1.0" encoding="UTF-8" standalone="no"?>
<!DOCTYPE svg PUBLIC "-//W3C//DTD SVG 1.1//EN" "http://www.w3.org/Graphics/SVG/1.1/DTD/svg11.dtd">
<svg version="1.1" xmlns="http://www.w3.org/2000/svg" xmlns:xlink="http://www.w3.org/1999/xlink" preserveAspectRatio="xMidYMid meet" viewBox="0 0 640 180" width="640" height="180"><defs><path d="M0 0L640 0L640 183.89L0 183.89L0 0Z" id="b2AyrDezSI"></path><path d="M203.06 90C203.06 137.37 164.59 175.83 117.22 175.83C69.85 175.83 31.39 137.37 31.39 90C31.39 42.63 69.85 4.17 117.22 4.17C164.59 4.17 203.06 42.63 203.06 90Z" id="a8kkhGd6h"></path><path d="M405.83 90C405.83 137.37 367.37 175.83 320 175.83C272.63 175.83 234.17 137.37 234.17 90C234.17 42.63 272.63 4.17 320 4.17C367.37 4.17 405.83 42.63 405.83 90Z" id="b2kgGIJR7a"></path><path d="M613.89 90C613.89 137.37 575.43 175.83 528.06 175.83C480.68 175.83 442.22 137.37 442.22 90C442.22 42.63 480.68 4.17 528.06 4.17C575.43 4.17 613.89 42.63 613.89 90Z" id="a18C61rS0c"></path></defs><g><g><g><use xlink:href="#b2AyrDezSI" opacity="1" fill="#e5e4e9" fill-opacity="1"></use></g><g><use xlink:href="#a8kkhGd6h" opacity="1" fill="#c8c7c8" fill-opacity="1"></use></g><g><use xlink:href="#b2kgGIJR7a" opacity="1" fill="#c8c7c8" fill-opacity="1"></use></g><g><use xlink:href="#a18C61rS0c" opacity="1" fill="#999799" fill-opacity="1"></use></g></g></g></svg>