<?xml version="1.0" encoding="UTF-8" standalone="no"?>
<!DOCTYPE svg PUBLIC "-//W3C//DTD SVG 1.1//EN" "http://www.w3.org/Graphics/SVG/1.1/DTD/svg11.dtd">
<svg version="1.1" xmlns="http://www.w3.org/2000/svg" xmlns:xlink="http://www.w3.org/1999/xlink" preserveAspectRatio="xMidYMid meet" viewBox="0 0 750 1334" width="750" height="1334"><defs><path d="M696.36 13C719.47 13 738.19 31.73 738.19 54.83C738.19 308.86 738.19 1029.14 738.19 1283.17C738.19 1306.27 719.47 1325 696.36 1325C559.45 1325 190.55 1325 53.64 1325C30.53 1325 11.81 1306.27 11.81 1283.17C11.81 1029.14 11.81 308.86 11.81 54.83C11.81 31.73 30.53 13 53.64 13C190.55 13 559.45 13 696.36 13Z" id="bOLd2PCRR"></path><path d="M690.24 23C712.9 23 731.27 41.37 731.27 64.03C731.27 313.73 731.27 1021.77 731.27 1271.47C731.27 1294.13 712.9 1312.5 690.24 1312.5C555.94 1312.5 194.06 1312.5 59.76 1312.5C37.1 1312.5 18.73 1294.13 18.73 1271.47C18.73 1021.77 18.73 313.73 18.73 64.03C18.73 41.37 37.1 23 59.76 23C194.06 23 555.94 23 690.24 23Z" id="a23LLkLBZz"></path><path d="M563.05 13C572.96 13 581 21.04 581 30.95C581 38.54 581 43.36 581 50.95C581 60.86 572.96 68.9 563.05 68.9C484.24 68.9 265.76 68.9 186.95 68.9C177.04 68.9 169 60.86 169 50.95C169 43.36 169 38.54 169 30.95C169 21.04 177.04 13 186.95 13C265.76 13 484.24 13 563.05 13Z" id="e2mKo6QIYb"></path><path d="M581 47.24L581 13L169 13L169 47.24L581 47.24Z" id="a2rtsRJotb"></path></defs><g><g><g><g><filter id="shadow15575369" x="-13.19" y="-12" width="777.39" height="1363" filterUnits="userSpaceOnUse" primitiveUnits="userSpaceOnUse"><feFlood></feFlood><feComposite in2="SourceAlpha" operator="in"></feComposite><feGaussianBlur stdDeviation="2.65"></feGaussianBlur><feOffset dx="1" dy="1" result="afterOffset"></feOffset><feFlood flood-color="#1e1e1e" flood-opacity="0.5"></feFlood><feComposite in2="afterOffset" operator="in"></feComposite><feMorphology operator="dilate" radius="5"></feMorphology><feComposite in2="SourceAlpha" operator="out"></feComposite></filter><path d="M696.36 13C719.47 13 738.19 31.73 738.19 54.83C738.19 308.86 738.19 1029.14 738.19 1283.17C738.19 1306.27 719.47 1325 696.36 1325C559.45 1325 190.55 1325 53.64 1325C30.53 1325 11.81 1306.27 11.81 1283.17C11.81 1029.14 11.81 308.86 11.81 54.83C11.81 31.73 30.53 13 53.64 13C190.55 13 559.45 13 696.36 13Z" id="dzB4NNPGI" fill="white" fill-opacity="1" filter="url(#shadow15575369)"></path></g><use xlink:href="#bOLd2PCRR" opacity="1" fill="#eae9e9" fill-opacity="1"></use><g><filter id="shadow15383588" x="2.81" y="4" width="745.39" height="1331" filterUnits="userSpaceOnUse" primitiveUnits="userSpaceOnUse"><feFlood></feFlood><feComposite in2="SourceAlpha" operator="out"></feComposite><feGaussianBlur stdDeviation="1"></feGaussianBlur><feOffset dx="1" dy="1" result="afterOffset"></feOffset><feFlood flood-color="#ffffff" flood-opacity="0.8"></feFlood><feComposite in2="afterOffset" operator="in"></feComposite><feMorphology operator="dilate" radius="1"></feMorphology><feComposite in2="SourceAlpha" operator="in"></feComposite></filter><path d="M696.36 13C719.47 13 738.19 31.73 738.19 54.83C738.19 308.86 738.19 1029.14 738.19 1283.17C738.19 1306.27 719.47 1325 696.36 1325C559.45 1325 190.55 1325 53.64 1325C30.53 1325 11.81 1306.27 11.81 1283.17C11.81 1029.14 11.81 308.86 11.81 54.83C11.81 31.73 30.53 13 53.64 13C190.55 13 559.45 13 696.36 13Z" id="b3CrzGo7id" fill="white" fill-opacity="1" filter="url(#shadow15383588)"></path></g></g><g><use xlink:href="#a23LLkLBZz" opacity="1" fill="#ffffff" fill-opacity="1"></use><g><filter id="shadow6560131" x="9.73" y="14" width="731.55" height="1308.5" filterUnits="userSpaceOnUse" primitiveUnits="userSpaceOnUse"><feFlood></feFlood><feComposite in2="SourceAlpha" operator="out"></feComposite><feGaussianBlur stdDeviation="1"></feGaussianBlur><feOffset dx="1" dy="1" result="afterOffset"></feOffset><feFlood flood-color="#ffffff" flood-opacity="0.8"></feFlood><feComposite in2="afterOffset" operator="in"></feComposite><feMorphology operator="dilate" radius="1"></feMorphology><feComposite in2="SourceAlpha" operator="in"></feComposite></filter><path d="M690.24 23C712.9 23 731.27 41.37 731.27 64.03C731.27 313.73 731.27 1021.77 731.27 1271.47C731.27 1294.13 712.9 1312.5 690.24 1312.5C555.94 1312.5 194.06 1312.5 59.76 1312.5C37.1 1312.5 18.73 1294.13 18.73 1271.47C18.73 1021.77 18.73 313.73 18.73 64.03C18.73 41.37 37.1 23 59.76 23C194.06 23 555.94 23 690.24 23Z" id="b2RHeDyuJL" fill="white" fill-opacity="1" filter="url(#shadow6560131)"></path></g></g><g><use xlink:href="#e2mKo6QIYb" opacity="1" fill="#eae9e9" fill-opacity="1"></use></g><g><use xlink:href="#a2rtsRJotb" opacity="1" fill="#eae9e9" fill-opacity="1"></use></g></g></g></svg>